<?xml version="1.0" encoding="utf-8"?>
<!-- Created with "sPlan" (http://www.abacom-online.de) -->
<svg version="1.1" baseProfile="full"
xmlns="http://www.w3.org/2000/svg"
width="100mm" height="50mm"
viewBox="0 0 1000 500">
<title>graph1</title>
<defs>
<style type="text/css">
<![CDATA[
polyline {stroke-linecap:round; stroke-linejoin:round}
polygon {stroke-linecap:round; stroke-linejoin:round}
path {stroke-linecap:round; stroke-linejoin:round}
circle {stroke-linecap:round; stroke-linejoin:round}
]]>
</style>
</defs>
<circle cx="389.12" cy="205.93" r="83.30" fill="rgb(255,255,255)" stroke="rgb(0,0,0)" stroke-width="2" />
<polyline points="388.92 89.60 388.92 156.07" fill="none" stroke="rgb(0,0,0)" stroke-width="2" />
<polyline points="355.68 156.07 422.16 156.07" fill="none" stroke="rgb(0,0,0)" stroke-width="4" />
<polyline points="272.59 205.93 322.44 205.93" fill="none" stroke="rgb(0,0,0)" stroke-width="2" />
<polyline points="339.06 205.93 355.68 205.93" fill="none" stroke="rgb(0,0,0)" stroke-width="2" />
<polyline points="372.30 205.93 388.92 205.93" fill="none" stroke="rgb(0,0,0)" stroke-width="2" />
<polyline points="405.54 205.93 422.16 205.93" fill="none" stroke="rgb(0,0,0)" stroke-width="2" />
<polyline points="438.77 205.93 455.39 205.93" fill="none" stroke="rgb(0,0,0)" stroke-width="2" />
<polyline points="355.68 272.40 355.68 280.71" fill="none" stroke="rgb(0,0,0)" stroke-width="2" />
<polyline points="422.16 272.40 422.16 322.26" fill="none" stroke="rgb(0,0,0)" stroke-width="2" />
<path fill="none" stroke="rgb(0,0,0)" stroke-width="2" d=" M 421.70 272.53 Q 421.52 270.89 420.57 268.16 Q 419.63 265.43 418.09 262.92 Q 416.55 260.40 414.49 258.20 Q 412.42 256.00 409.90 254.19 Q 407.38 252.38 404.51 251.03 Q 401.64 249.69 398.52 248.86 Q 395.40 248.03 392.16 247.76 Q 388.92 247.48 385.68 247.76 Q 382.44 248.03 379.32 248.86 Q 376.20 249.69 373.33 251.03 Q 370.45 252.38 367.93 254.19 Q 365.42 256.00 363.35 258.20 Q 361.28 260.40 359.75 262.92 Q 358.21 265.43 357.27 268.16 Q 356.32 270.89 356.23 271.71" />
<path fill="rgb(255,255,255)" stroke="rgb(255,255,255)" stroke-width="0" d=" M 516.35 237.84 L 516.38 212.31 527.37 212.31 528.65 212.34 529.80 212.42 530.83 212.56 531.72 212.75 532.48 213.00 533.15 213.32 533.77 213.72 534.32 214.21 534.83 214.78 535.27 215.44 535.65 216.15 535.94 216.89 536.14 217.67 536.27 218.47 536.31 219.30 536.24 220.36 536.03 221.34 535.69 222.26 535.20 223.11 534.58 223.90 533.81 224.59 532.89 225.17 531.82 225.65 530.60 226.01 529.23 226.27 529.69 226.55 530.10 226.82 530.46 227.09 530.78 227.37 531.05 227.64 531.57 228.23 532.09 228.86 532.61 229.52 533.12 230.20 533.63 230.92 537.88 237.84 534.17 237.84 530.85 232.55 530.29 231.67 529.77 230.89 529.29 230.19 528.85 229.57 528.46 229.04 528.09 228.59 527.74 228.20 527.40 227.87 527.08 227.60 526.77 227.39 526.47 227.23 526.17 227.08 525.87 226.96 525.56 226.86 525.26 226.78 525.00 226.74 524.69 226.71 524.32 226.69 523.89 226.67 523.40 226.67 519.55 226.67 519.54 237.84 Z M 519.55 223.48 L 526.70 223.48 527.57 223.46 528.37 223.41 529.10 223.32 529.76 223.19 530.34 223.03 530.86 222.83 531.33 222.58 531.74 222.29 532.10 221.96 532.41 221.58 532.67 221.18 532.87 220.76 533.01 220.33 533.09 219.88 533.12 219.42 533.07 218.76 532.91 218.15 532.64 217.58 532.26 217.07 531.77 216.61 531.17 216.21 530.45 215.90 529.59 215.68 528.62 215.55 527.51 215.50 519.57 215.50 Z M 540.69 225.41 L 540.83 222.99 541.24 220.79 541.92 218.80 542.88 217.04 544.10 215.50 545.55 214.21 547.14 213.20 548.90 212.49 550.82 212.06 552.89 211.91 554.27 211.98 555.59 212.18 556.86 212.52 558.08 212.99 559.24 213.60 560.32 214.32 561.29 215.15 562.15 216.09 562.90 217.14 563.55 218.29 564.08 219.52 564.49 220.83 564.79 222.19 564.97 223.62 565.02 225.12 564.96 226.63 564.77 228.08 564.45 229.47 564.02 230.79 563.45 232.04 562.77 233.20 561.99 234.25 561.11 235.17 560.12 235.98 559.02 236.67 557.86 237.23 556.66 237.67 555.42 237.99 554.15 238.17 552.84 238.24 551.44 238.17 550.10 237.96 548.81 237.61 547.59 237.13 546.43 236.50 545.35 235.76 544.39 234.91 543.53 233.96 542.78 232.91 542.15 231.76 541.62 230.55 541.22 229.31 540.93 228.04 540.75 226.74 540.69 225.41 Z M 543.88 225.44 L 543.98 227.15 544.29 228.71 544.80 230.12 545.51 231.38 546.43 232.48 547.50 233.40 548.67 234.12 549.95 234.64 551.34 234.94 552.83 235.05 554.34 234.94 555.74 234.63 557.04 234.11 558.22 233.39 559.29 232.45 560.20 231.33 560.91 230.03 561.42 228.56 561.73 226.91 561.83 225.09 561.79 223.92 561.66 222.80 561.45 221.75 561.14 220.76 560.75 219.83 560.28 218.97 559.73 218.19 559.09 217.49 558.38 216.88 557.59 216.34 556.73 215.90 555.84 215.55 554.90 215.30 553.93 215.15 552.91 215.10 551.47 215.20 550.12 215.49 548.85 215.96 547.66 216.63 546.55 217.49 545.59 218.57 544.85 219.90 544.31 221.50 543.99 223.34 543.88 225.44 Z M 580.17 237.84 L 576.98 237.84 576.99 217.95 576.50 218.38 575.96 218.81 575.35 219.24 574.69 219.67 573.97 220.10 573.24 220.51 572.54 220.87 571.86 221.19 571.22 221.47 570.61 221.71 570.61 218.69 571.65 218.18 572.64 217.62 573.58 217.03 574.46 216.39 575.29 215.71 576.05 215.01 576.71 214.32 577.28 213.64 577.75 212.97 578.13 212.31 580.19 212.31 Z" />
<path fill="rgb(255,255,255)" stroke="rgb(0,0,0)" stroke-width="2" d=" M 746 156 L 796 156 796 272 746 272 746 156 Z" />
<polyline points="771.15 106.22 771.15 156.07" fill="none" stroke="rgb(0,0,0)" stroke-width="2" />
<polyline points="771.15 272.40 771.15 322.26" fill="none" stroke="rgb(0,0,0)" stroke-width="2" />
<path fill="rgb(255,255,255)" stroke="rgb(255,255,255)" stroke-width="0" d=" M 807.18 204.60 L 807.20 179.07 818.20 179.07 819.48 179.10 820.63 179.18 821.65 179.32 822.54 179.52 823.31 179.76 823.98 180.08 824.59 180.48 825.15 180.97 825.65 181.54 826.10 182.20 826.47 182.91 826.76 183.66 826.97 184.43 827.10 185.23 827.14 186.06 827.07 187.12 826.86 188.11 826.51 189.03 826.03 189.88 825.40 190.66 824.64 191.35 823.72 191.94 822.65 192.41 821.43 192.78 820.06 193.03 820.51 193.31 820.92 193.58 821.28 193.86 821.60 194.13 821.87 194.40 822.40 195.00 822.92 195.62 823.43 196.28 823.94 196.97 824.45 197.68 828.70 204.60 824.99 204.60 821.68 199.31 821.12 198.44 820.59 197.65 820.12 196.95 819.68 196.34 819.28 195.81 818.91 195.35 818.56 194.96 818.23 194.63 817.90 194.36 817.60 194.15 817.30 193.99 817.00 193.84 816.70 193.72 816.39 193.62 816.08 193.55 815.83 193.50 815.51 193.47 815.14 193.45 814.72 193.44 814.23 193.43 810.38 193.43 810.37 204.60 Z M 810.38 190.24 L 817.52 190.24 818.40 190.22 819.20 190.17 819.93 190.08 820.58 189.95 821.17 189.79 821.69 189.59 822.15 189.34 822.57 189.05 822.93 188.72 823.24 188.34 823.49 187.94 823.69 187.52 823.83 187.09 823.92 186.64 823.95 186.18 823.89 185.52 823.73 184.91 823.46 184.35 823.08 183.83 822.60 183.37 822.00 182.97 821.27 182.66 820.42 182.44 819.44 182.31 818.34 182.27 810.39 182.27 Z M 843.47 204.60 L 840.28 204.60 840.30 184.71 839.81 185.14 839.26 185.57 838.66 186.00 838.00 186.43 837.28 186.86 836.54 187.27 835.84 187.64 835.17 187.96 834.53 188.24 833.92 188.47 833.92 185.46 834.96 184.94 835.95 184.39 836.89 183.79 837.77 183.15 838.60 182.47 839.35 181.77 840.02 181.09 840.58 180.41 841.06 179.74 841.44 179.07 843.50 179.07 Z" />
<path fill="rgb(255,255,255)" stroke="rgb(255,255,255)" stroke-width="0" d=" M 817.94 237.84 L 814.75 237.84 814.77 217.95 814.28 218.38 813.74 218.81 813.13 219.24 812.47 219.67 811.75 220.10 811.02 220.51 810.32 220.87 809.64 221.19 809.00 221.47 808.39 221.71 808.39 218.69 809.43 218.18 810.42 217.62 811.36 217.03 812.24 216.39 813.07 215.71 813.83 215.01 814.49 214.32 815.06 213.64 815.53 212.97 815.91 212.31 817.97 212.31 Z M 826.32 237.84 L 826.35 212.31 829.54 212.31 829.52 226.03 836.68 219.09 841.10 219.09 833.84 226.12 841.48 237.84 837.75 237.84 831.55 228.33 829.52 230.31 829.51 237.84 Z" />
<polyline points="388.92 89.60 388.92 23.13 771.15 23.13 771.15 106.22" fill="none" stroke="rgb(0,0,0)" stroke-width="2" />
<polyline points="472.01 421.97 513.56 421.97" fill="none" stroke="rgb(0,0,0)" stroke-width="2" />
<polyline points="505.25 446.90 555.10 397.04" fill="none" stroke="rgb(0,0,0)" stroke-width="2" />
<circle cx="530.18" cy="422.06" r="16.62" fill="rgb(255,255,255)" stroke="rgb(0,0,0)" stroke-width="2" />
<path fill="rgb(255,255,255)" stroke="rgb(255,255,255)" stroke-width="0" d=" M 451.74 404.02 L 461.58 390.11 453.36 378.50 457.18 378.50 461.81 385.04 462.34 385.79 462.76 386.42 463.07 386.93 463.28 387.32 463.38 387.59 463.69 387.15 464.03 386.67 464.39 386.15 464.79 385.59 465.21 384.99 469.81 378.50 473.70 378.50 465.44 390.16 475.27 404.02 471.44 404.02 464.89 394.78 464.66 394.46 464.41 394.10 464.14 393.72 463.84 393.31 463.53 392.87 463.11 393.46 462.75 393.96 462.46 394.38 462.22 394.72 462.04 394.97 455.63 404.02 Z M 488.83 404.02 L 485.64 404.02 485.66 384.13 485.17 384.56 484.62 384.99 484.02 385.42 483.35 385.85 482.63 386.28 481.90 386.69 481.20 387.06 480.53 387.38 479.89 387.66 479.28 387.90 479.28 384.88 480.32 384.37 481.31 383.81 482.24 383.21 483.13 382.57 483.96 381.89 484.71 381.20 485.37 380.51 485.94 379.83 486.42 379.16 486.80 378.50 488.85 378.50 Z" />
<polyline points="771.15 322.26 771.15 421.97 688.05 421.97" fill="none" stroke="rgb(0,0,0)" stroke-width="2" />
<polyline points="472.01 421.97 422.16 421.97 422.16 322.26" fill="none" stroke="rgb(0,0,0)" stroke-width="2" />
<circle cx="422" cy="422" r="5" fill="rgb(0,0,0)" stroke="none" stroke-width="2" />
<polyline points="688.05 421.97 646.51 421.97" fill="none" stroke="rgb(0,0,0)" stroke-width="2" />
<polyline points="654.82 397.04 604.96 446.90" fill="none" stroke="rgb(0,0,0)" stroke-width="2" />
<circle cx="629.89" cy="421.89" r="16.62" fill="rgb(255,255,255)" stroke="rgb(0,0,0)" stroke-width="2" />
<path fill="rgb(255,255,255)" stroke="rgb(255,255,255)" stroke-width="0" d=" M 708.33 439.92 L 698.48 453.83 706.71 465.45 702.89 465.45 698.25 458.90 697.73 458.15 697.31 457.52 697.00 457.01 696.79 456.62 696.69 456.35 696.38 456.80 696.04 457.28 695.67 457.80 695.28 458.36 694.86 458.96 690.26 465.45 686.37 465.45 694.62 453.79 684.80 439.92 688.62 439.92 695.17 449.16 695.40 449.49 695.65 449.84 695.93 450.22 696.22 450.63 696.54 451.08 696.95 450.48 697.31 449.98 697.61 449.56 697.85 449.22 698.03 448.98 704.44 439.92 Z M 666.84 443.11 L 666.85 439.92 683.60 439.92 683.60 440.38 683.56 440.82 683.49 441.26 683.39 441.70 683.26 442.12 682.98 442.81 682.65 443.50 682.26 444.18 681.82 444.85 681.31 445.51 680.72 446.18 680.03 446.89 679.23 447.63 678.32 448.40 677.31 449.21 675.76 450.53 674.44 451.72 673.34 452.78 672.46 453.71 671.80 454.52 671.30 455.26 670.92 455.99 670.64 456.71 670.47 457.43 670.42 458.14 670.47 458.81 670.63 459.44 670.89 460.02 671.25 460.56 671.72 461.06 672.27 461.49 672.88 461.83 673.56 462.06 674.30 462.21 675.11 462.26 675.96 462.21 676.73 462.07 677.44 461.84 678.08 461.51 678.65 461.09 679.12 460.59 679.50 460.02 679.77 459.37 679.93 458.66 679.99 457.87 683.18 458.27 682.98 459.60 682.63 460.80 682.14 461.87 681.51 462.81 680.73 463.61 679.82 464.27 678.80 464.78 677.66 465.15 676.41 465.37 675.04 465.45 673.65 465.36 672.39 465.12 671.25 464.71 670.23 464.14 669.33 463.40 668.57 462.55 667.98 461.61 667.56 460.59 667.31 459.50 667.23 458.33 667.25 457.72 667.32 457.11 667.43 456.50 667.59 455.90 667.80 455.30 668.06 454.70 668.37 454.09 668.75 453.46 669.19 452.83 669.69 452.18 670.29 451.48 671.05 450.69 671.97 449.81 673.04 448.85 674.26 447.80 675.31 446.96 676.20 446.23 676.93 445.61 677.51 445.12 677.94 444.73 678.27 444.41 678.58 444.09 678.87 443.76 679.14 443.44 679.37 443.11 Z" />
<polyline points="106.40 421.97 147.95 421.97" fill="none" stroke="rgb(0,0,0)" stroke-width="2" />
<polyline points="139.64 446.90 189.50 397.04" fill="none" stroke="rgb(0,0,0)" stroke-width="2" />
<circle cx="164.57" cy="422.06" r="16.62" fill="rgb(255,255,255)" stroke="rgb(0,0,0)" stroke-width="2" />
<path fill="rgb(255,255,255)" stroke="rgb(255,255,255)" stroke-width="0" d=" M 86.13 404.02 L 95.97 390.11 87.75 378.50 91.57 378.50 96.20 385.04 96.73 385.79 97.15 386.42 97.46 386.93 97.67 387.32 97.77 387.59 98.08 387.15 98.42 386.67 98.78 386.15 99.18 385.59 99.60 384.99 104.20 378.50 108.09 378.50 99.83 390.16 109.66 404.02 105.83 404.02 99.28 394.78 99.05 394.46 98.80 394.10 98.53 393.72 98.23 393.31 97.92 392.87 97.50 393.46 97.14 393.96 96.85 394.38 96.61 394.72 96.43 394.97 90.02 404.02 Z M 111.26 397.24 L 114.45 396.84 114.70 397.73 115.00 398.50 115.35 399.17 115.75 399.74 116.21 400.20 116.73 400.57 117.32 400.86 117.97 401.07 118.70 401.19 119.50 401.23 120.43 401.18 121.29 401.01 122.07 400.72 122.76 400.33 123.38 399.82 123.90 399.22 124.30 398.58 124.59 397.88 124.76 397.12 124.82 396.32 124.77 395.54 124.60 394.83 124.31 394.17 123.91 393.57 123.40 393.02 122.80 392.55 122.14 392.18 121.41 391.92 120.62 391.76 119.77 391.71 119.40 391.72 118.99 391.77 118.54 391.84 118.05 391.93 117.54 392.06 117.90 388.87 118.02 388.88 118.13 388.89 118.23 388.90 118.33 388.90 118.41 388.91 119.20 388.87 119.95 388.76 120.68 388.58 121.37 388.32 122.03 387.99 122.61 387.58 123.06 387.10 123.38 386.54 123.57 385.89 123.64 385.17 123.59 384.59 123.45 384.05 123.22 383.55 122.89 383.09 122.48 382.68 121.98 382.32 121.44 382.04 120.84 381.85 120.18 381.73 119.47 381.69 118.77 381.73 118.11 381.85 117.50 382.05 116.94 382.33 116.43 382.69 115.98 383.12 115.59 383.64 115.28 384.24 115.04 384.92 114.86 385.68 111.67 385.28 111.96 384.05 112.37 382.93 112.89 381.93 113.53 381.04 114.29 380.27 115.14 379.63 116.08 379.14 117.09 378.78 118.19 378.57 119.36 378.50 120.18 378.53 120.98 378.64 121.75 378.81 122.49 379.06 123.21 379.37 123.88 379.75 124.49 380.18 125.02 380.66 125.50 381.19 125.90 381.77 126.24 382.38 126.50 383.01 126.68 383.65 126.79 384.31 126.83 384.99 126.79 385.62 126.69 386.23 126.51 386.82 126.26 387.38 125.94 387.93 125.55 388.44 125.09 388.90 124.57 389.32 123.98 389.70 123.32 390.04 124.18 390.29 124.96 390.64 125.65 391.08 126.27 391.60 126.80 392.22 127.24 392.92 127.58 393.68 127.82 394.51 127.97 395.41 128.01 396.37 127.91 397.68 127.62 398.90 127.13 400.04 126.45 401.10 125.57 402.08 124.54 402.92 123.40 403.58 122.17 404.05 120.83 404.33 119.39 404.42 118.08 404.34 116.87 404.10 115.76 403.70 114.73 403.14 113.79 402.42 112.98 401.58 112.32 400.63 111.82 399.60 111.46 398.47 111.26 397.24 Z" />
<polyline points="332.44 421.97 290.90 421.97" fill="none" stroke="rgb(0,0,0)" stroke-width="2" />
<polyline points="299.21 397.04 249.35 446.90" fill="none" stroke="rgb(0,0,0)" stroke-width="2" />
<circle cx="274.28" cy="421.89" r="16.62" fill="rgb(255,255,255)" stroke="rgb(0,0,0)" stroke-width="2" />
<path fill="rgb(255,255,255)" stroke="rgb(255,255,255)" stroke-width="0" d=" M 352.72 439.92 L 342.87 453.83 351.10 465.45 347.28 465.45 342.64 458.90 342.12 458.15 341.70 457.52 341.39 457.01 341.18 456.62 341.08 456.35 340.77 456.80 340.43 457.28 340.06 457.80 339.67 458.36 339.25 458.96 334.65 465.45 330.76 465.45 339.02 453.79 329.19 439.92 333.01 439.92 339.56 449.16 339.79 449.49 340.05 449.84 340.32 450.22 340.61 450.63 340.93 451.08 341.35 450.48 341.70 449.98 342.00 449.56 342.24 449.22 342.42 448.98 348.83 439.92 Z M 317.22 439.92 L 317.22 445.90 328.78 445.90 328.78 449.09 316.40 465.05 314.01 465.05 314.02 449.09 310.83 449.09 310.83 445.90 314.03 445.90 314.03 439.92 Z M 317.21 449.09 L 317.20 458.95 324.85 449.09 Z" />
<polyline points="422.16 421.97 332.44 421.97" fill="none" stroke="rgb(0,0,0)" stroke-width="2" />
<polyline points="422.16 421.97 422.16 455.21" fill="none" stroke="rgb(0,0,0)" stroke-width="2" />
<polyline points="388.92 455.21 455.39 455.21" fill="none" stroke="rgb(0,0,0)" stroke-width="2" />
<polyline points="405.54 463.52 438.77 463.52" fill="none" stroke="rgb(0,0,0)" stroke-width="2" />
<polyline points="413.85 471.83 430.47 471.83" fill="none" stroke="rgb(0,0,0)" stroke-width="2" />
<polyline points="56.55 239.17 56.55 272.40" fill="none" stroke="rgb(0,0,0)" stroke-width="2" />
<circle cx="56.59" cy="314.14" r="41.59" fill="rgb(255,255,255)" stroke="rgb(0,0,0)" stroke-width="2" />
<polyline points="56.55 355.50 56.55 388.73" fill="none" stroke="rgb(0,0,0)" stroke-width="2" />
<path fill="none" stroke="rgb(0,0,0)" stroke-width="2" d=" M 32 316 C 41 304 47 304 57 316 C 66 329 72 329 81 316" />
<polyline points="106.40 421.97 56.55 421.97 56.55 388.73" fill="none" stroke="rgb(0,0,0)" stroke-width="2" />
<polyline points="56.55 239.17 56.55 205.93 272.59 205.93" fill="none" stroke="rgb(0,0,0)" stroke-width="2" />
<polyline points="781.15 23.13 920.00 23.13" fill="none" stroke="rgb(0,0,0)" stroke-width="2" stroke-dasharray="16,10" />
<polyline points="900.00 23.13 900.00 450.00" fill="none" stroke="rgb(0,0,0)" stroke-width="2" />
<polygon points="905.40 43.53 900.00 23.13 894.60 43.53" fill="rgb(0,0,0)" stroke="rgb(0,0,0)" stroke-width="2" />
<polyline points="894.00 451.00 906.00 451.00" fill="none" stroke="rgb(0,0,0)" stroke-width="2" />
<path fill="rgb(0,0,0)" stroke="rgb(0,0,0)" stroke-width="0" d=" M 801.94 221.16 L 801.98 221.31 802.06 221.42 802.18 221.49 802.35 221.53 802.55 221.54 802.85 221.53 803.37 221.51 804.12 221.50 805.09 221.49 806.28 221.48 806.99 221.47 807.62 221.47 808.16 221.47 808.63 221.48 809.02 221.49 809.35 221.51 809.63 221.52 809.87 221.53 810.06 221.53 810.21 221.54 810.37 221.52 810.51 221.50 810.63 221.46 810.72 221.40 810.80 221.33 810.86 221.26 810.90 221.18 810.94 221.10 810.95 221.03 810.96 220.95 810.95 220.91 810.94 220.88 810.94 220.85 810.93 220.83 810.92 220.81 810.81 220.67 810.65 220.56 810.43 220.49 810.16 220.46 809.84 220.46 809.47 220.46 809.26 220.46 809.07 220.45 808.88 220.43 808.71 220.40 808.55 220.35 808.41 220.29 808.30 220.20 808.22 220.09 808.17 219.95 808.15 219.79 808.24 219.33 808.40 218.61 808.63 217.64 808.93 216.42 809.30 214.94 809.67 213.48 809.97 212.28 810.21 211.37 810.37 210.73 810.46 210.38 814.09 210.38 814.80 210.43 815.40 210.56 815.92 210.76 816.33 211.03 816.65 211.36 816.89 211.74 817.07 212.12 817.19 212.51 817.26 212.90 817.27 213.31 817.28 213.77 817.25 214.27 817.19 214.80 817.08 215.37 816.94 215.99 816.79 216.60 816.67 217.19 816.57 217.75 816.50 218.28 816.46 218.79 816.55 219.58 816.73 220.27 817.01 220.85 817.39 221.31 817.87 221.67 818.39 221.94 818.92 222.14 819.45 222.29 819.98 222.36 820.51 222.38 821.31 222.24 822.00 222.00 822.59 221.65 823.09 221.19 823.49 220.63 823.81 220.05 824.05 219.55 824.22 219.14 824.32 218.80 824.35 218.55 824.30 218.38 824.24 218.25 824.15 218.16 824.04 218.11 823.91 218.10 823.79 218.12 823.68 218.16 823.58 218.22 823.51 218.30 823.45 218.40 823.40 218.51 823.36 218.62 823.32 218.74 823.29 218.85 823.26 218.96 823.00 219.58 822.73 220.11 822.45 220.55 822.17 220.90 821.87 221.15 821.58 221.34 821.32 221.48 821.08 221.57 820.87 221.62 820.69 221.62 820.42 221.59 820.18 221.51 819.99 221.39 819.85 221.22 819.74 221.01 819.66 220.76 819.60 220.50 819.56 220.21 819.54 219.90 819.54 219.57 819.55 219.10 819.57 218.58 819.61 218.00 819.66 217.37 819.73 216.69 819.80 216.01 819.85 215.42 819.90 214.91 819.93 214.49 819.95 214.14 819.92 213.65 819.85 213.18 819.71 212.72 819.52 212.27 819.28 211.83 818.97 211.42 818.59 211.04 818.14 210.69 817.62 210.37 817.04 210.08 818.44 209.67 819.69 209.19 820.79 208.64 821.74 208.02 822.54 207.33 823.20 206.60 823.71 205.85 824.07 205.08 824.29 204.29 824.36 203.48 824.33 202.84 824.17 202.19 823.87 201.53 823.43 200.88 822.86 200.23 822.12 199.63 821.14 199.16 819.95 198.81 818.53 198.57 816.88 198.46 808.27 198.46 808.01 198.46 807.80 198.52 807.64 198.64 807.54 198.82 807.49 199.05 807.54 199.26 807.64 199.41 807.77 199.51 807.95 199.55 808.17 199.54 808.34 199.54 808.75 199.54 809.11 199.56 809.42 199.58 809.68 199.62 809.88 199.66 810.04 199.71 810.16 199.79 810.24 199.90 810.29 200.03 810.30 200.18 810.29 200.33 810.26 200.51 810.22 200.70 810.16 200.92 810.10 201.16 805.67 218.87 805.63 219.06 805.59 219.24 805.54 219.42 805.49 219.60 805.43 219.78 805.35 219.96 805.25 220.11 805.13 220.25 804.99 220.36 804.82 220.46 804.47 220.55 804.11 220.61 803.74 220.64 803.37 220.65 802.99 220.64 802.64 220.63 802.36 220.68 802.15 220.79 802.01 220.95 801.94 221.16 Z M 810.67 209.62 L 810.72 209.39 810.80 209.06 810.90 208.64 811.03 208.13 811.18 207.52 811.38 206.73 811.65 205.66 811.99 204.31 812.40 202.69 812.88 200.79 812.95 200.51 813.03 200.27 813.12 200.07 813.22 199.91 813.34 199.78 813.49 199.69 813.70 199.62 813.98 199.57 814.31 199.54 814.71 199.54 816.34 199.54 817.03 199.54 817.70 199.59 818.36 199.69 819.00 199.85 819.63 200.06 820.19 200.35 820.63 200.76 820.97 201.28 821.18 201.92 821.28 202.68 821.25 203.03 821.21 203.38 821.15 203.73 821.07 204.08 820.97 204.43 820.82 205.06 820.58 205.71 820.24 206.37 819.82 207.05 819.30 207.74 818.62 208.37 817.72 208.87 816.61 209.25 815.27 209.50 813.72 209.62 Z" />
<path fill="rgb(0,0,0)" stroke="rgb(0,0,0)" stroke-width="0" d=" M 827.39 222.68 L 827.43 223.35 827.54 223.97 827.71 224.53 827.94 225.04 828.24 225.49 828.60 225.86 829.00 226.16 829.44 226.37 829.93 226.51 830.47 226.56 830.85 226.52 831.22 226.45 831.57 226.33 831.90 226.17 832.22 225.97 832.51 225.75 832.79 225.52 833.05 225.29 833.28 225.05 833.50 224.81 833.61 225.17 833.74 225.49 833.91 225.76 834.10 225.98 834.31 226.17 834.54 226.31 834.78 226.42 835.02 226.50 835.27 226.55 835.52 226.56 835.72 226.55 835.92 226.52 836.11 226.47 836.29 226.39 836.47 226.29 836.81 225.96 837.11 225.60 837.36 225.18 837.57 224.73 837.75 224.23 837.88 223.75 837.99 223.37 838.06 223.08 838.10 222.88 838.11 222.78 838.10 222.70 838.09 222.64 838.06 222.58 838.02 222.54 837.97 222.51 837.92 222.49 837.87 222.47 837.82 222.46 837.78 222.45 837.73 222.45 837.63 222.46 837.54 222.50 837.46 222.59 837.38 222.73 837.30 222.90 837.20 223.29 837.09 223.69 836.97 224.08 836.83 224.49 836.68 224.89 836.52 225.26 836.32 225.56 836.11 225.78 835.86 225.93 835.60 226.00 835.51 225.99 835.43 225.98 835.35 225.94 835.26 225.89 835.18 225.81 835.10 225.72 835.04 225.59 834.99 225.42 834.96 225.22 834.95 224.99 834.97 224.63 835.01 224.27 835.07 223.91 835.15 223.56 835.25 223.20 836.83 216.87 836.87 216.73 836.90 216.61 836.92 216.52 836.93 216.44 836.93 216.39 836.89 216.17 836.81 215.99 836.67 215.85 836.47 215.76 836.23 215.71 836.15 215.71 836.05 215.73 835.95 215.76 835.84 215.80 835.73 215.87 835.61 215.96 835.51 216.08 835.41 216.24 835.33 216.43 835.26 216.66 835.12 216.42 834.97 216.19 834.81 215.98 834.63 215.79 834.44 215.62 834.23 215.47 834.00 215.36 833.74 215.27 833.46 215.22 833.16 215.20 832.30 215.33 831.48 215.63 830.70 216.10 829.95 216.74 829.24 217.55 828.61 218.47 828.11 219.44 827.74 220.47 827.50 221.54 827.39 222.68 Z M 829.12 223.78 L 829.14 223.39 829.20 222.89 829.31 222.30 829.45 221.61 829.62 220.83 829.84 220.02 830.09 219.27 830.37 218.56 830.68 217.90 831.03 217.29 831.19 217.07 831.36 216.85 831.55 216.64 831.75 216.44 831.96 216.25 832.19 216.08 832.42 215.95 832.66 215.85 832.90 215.79 833.16 215.76 833.53 215.83 833.86 215.97 834.14 216.16 834.36 216.42 834.53 216.74 834.67 217.08 834.77 217.37 834.83 217.64 834.87 217.86 834.88 218.05 834.83 218.36 834.73 218.80 834.60 219.37 834.42 220.08 834.21 220.93 833.99 221.76 833.81 222.45 833.67 222.98 833.56 223.36 833.50 223.58 833.37 223.82 833.19 224.08 832.97 224.37 832.70 224.69 832.38 225.02 832.04 225.35 831.68 225.60 831.30 225.80 830.92 225.93 830.52 226.00 830.21 225.95 829.94 225.85 829.72 225.69 829.54 225.49 829.40 225.23 829.29 224.94 829.21 224.66 829.16 224.37 829.13 224.08 829.12 223.78 Z" />
<path fill="rgb(0,0,0)" stroke="rgb(0,0,0)" stroke-width="0" d=" M 561.91 431.05 L 561.93 431.17 561.96 431.27 562.02 431.36 562.09 431.42 562.19 431.46 562.30 431.49 562.41 431.52 562.53 431.53 562.66 431.54 562.79 431.54 578.73 431.54 578.93 431.54 579.12 431.53 579.28 431.52 579.42 431.51 579.54 431.48 579.64 431.44 579.74 431.36 579.83 431.25 579.92 431.10 580.01 430.91 580.84 428.99 581.53 427.39 582.08 426.12 582.49 425.17 582.76 424.54 582.94 424.13 583.07 423.81 583.15 423.58 583.19 423.44 583.17 423.40 583.14 423.25 583.08 423.14 582.99 423.06 582.87 423.02 582.72 423.01 582.59 423.02 582.48 423.05 582.38 423.09 582.30 423.15 582.24 423.22 582.19 423.30 582.14 423.39 582.09 423.49 582.04 423.59 581.99 423.70 581.31 425.23 580.62 426.55 579.92 427.64 579.21 428.52 578.48 429.18 577.67 429.68 576.68 430.05 575.53 430.31 574.21 430.44 572.73 430.46 568.93 430.46 568.81 430.46 568.70 430.46 568.59 430.44 568.49 430.43 568.38 430.40 568.29 430.36 568.22 430.31 568.17 430.25 568.13 430.16 568.12 430.07 568.12 429.93 568.18 429.66 568.27 429.24 568.41 428.68 568.59 427.97 568.83 427.05 569.15 425.82 569.55 424.29 570.02 422.47 570.57 420.34 573.25 420.34 573.76 420.33 574.22 420.36 574.64 420.40 575.02 420.46 575.35 420.55 575.62 420.68 575.84 420.86 575.99 421.11 576.09 421.40 576.13 421.76 576.11 421.99 576.09 422.23 576.06 422.45 576.02 422.67 575.97 422.88 575.92 423.08 575.88 423.27 575.85 423.44 575.83 423.59 575.82 423.73 575.87 423.92 575.97 424.06 576.09 424.14 576.26 424.16 576.46 424.13 576.55 424.14 576.65 424.05 576.75 423.85 576.86 423.56 576.98 423.15 577.14 422.52 577.39 421.54 577.73 420.22 578.16 418.54 578.67 416.51 578.70 416.42 578.73 416.32 578.75 416.20 578.76 416.06 578.78 415.91 578.77 415.75 578.72 415.63 578.63 415.54 578.49 415.48 578.30 415.45 578.17 415.46 578.06 415.50 577.97 415.55 577.89 415.63 577.83 415.72 577.78 415.82 577.74 415.93 577.70 416.03 577.68 416.14 577.66 416.24 577.43 416.97 577.17 417.58 576.88 418.09 576.56 418.48 576.21 418.76 575.80 418.96 575.32 419.11 574.78 419.21 574.17 419.26 573.48 419.26 570.84 419.26 572.88 411.30 572.98 410.95 573.08 410.65 573.20 410.42 573.33 410.24 573.48 410.12 573.65 410.04 573.87 409.98 574.13 409.95 574.43 409.93 574.78 409.94 578.17 409.94 579.14 409.93 580.01 409.98 580.79 410.07 581.48 410.23 582.08 410.44 582.57 410.74 582.96 411.18 583.24 411.76 583.41 412.47 583.47 413.32 583.46 413.69 583.44 414.02 583.42 414.34 583.39 414.62 583.36 414.88 583.32 415.12 583.30 415.33 583.27 415.53 583.26 415.70 583.25 415.84 583.30 416.06 583.38 416.22 583.48 416.33 583.62 416.38 583.79 416.38 583.93 416.37 584.05 416.32 584.16 416.20 584.25 416.04 584.32 415.81 584.36 415.57 584.42 415.14 584.51 414.53 584.62 413.73 584.76 412.74 584.90 411.75 585.01 410.92 585.09 410.26 585.16 409.76 585.19 409.44 585.16 409.22 585.07 409.05 584.94 408.94 584.75 408.87 584.51 408.86 568.07 408.86 567.95 408.86 567.84 408.88 567.74 408.93 567.65 408.99 567.56 409.08 567.48 409.24 567.44 409.39 567.44 409.54 567.48 409.69 567.56 409.83 567.69 409.89 567.84 409.94 568.02 409.97 568.22 409.98 568.44 409.97 568.88 409.97 569.09 409.97 569.29 409.98 569.47 409.99 569.65 410.02 569.82 410.06 569.96 410.11 570.08 410.19 570.16 410.29 570.22 410.42 570.24 410.57 570.23 410.71 570.21 410.88 570.17 411.07 570.13 411.29 570.07 411.53 565.64 428.71 565.61 428.87 565.56 429.03 565.52 429.18 565.47 429.34 565.41 429.50 565.35 429.66 565.27 429.80 565.17 429.93 565.06 430.06 564.93 430.17 564.66 430.28 564.38 430.37 564.08 430.42 563.77 430.44 563.44 430.43 563.13 430.43 562.93 430.43 562.74 430.44 562.57 430.45 562.41 430.48 562.27 430.52 562.14 430.58 562.05 430.66 561.98 430.76 561.93 430.89 561.91 431.05 Z" />
<path fill="rgb(0,0,0)" stroke="rgb(0,0,0)" stroke-width="0" d=" M 587.39 432.68 L 587.43 433.35 587.54 433.97 587.71 434.53 587.94 435.04 588.24 435.49 588.60 435.86 589.00 436.16 589.44 436.37 589.93 436.51 590.47 436.56 590.85 436.52 591.22 436.45 591.57 436.33 591.90 436.17 592.22 435.97 592.51 435.75 592.79 435.52 593.05 435.29 593.28 435.05 593.50 434.81 593.61 435.17 593.74 435.49 593.91 435.76 594.10 435.98 594.31 436.17 594.54 436.31 594.78 436.42 595.02 436.50 595.27 436.55 595.52 436.56 595.72 436.55 595.92 436.52 596.11 436.47 596.29 436.39 596.47 436.29 596.81 435.96 597.11 435.60 597.36 435.18 597.57 434.73 597.75 434.23 597.88 433.75 597.99 433.37 598.06 433.08 598.10 432.88 598.11 432.78 598.10 432.70 598.09 432.64 598.06 432.58 598.02 432.54 597.97 432.51 597.92 432.49 597.87 432.47 597.82 432.46 597.78 432.45 597.73 432.45 597.63 432.46 597.54 432.50 597.46 432.59 597.38 432.73 597.30 432.90 597.20 433.29 597.09 433.69 596.97 434.08 596.83 434.49 596.68 434.89 596.52 435.26 596.32 435.56 596.11 435.78 595.86 435.93 595.60 436.00 595.51 435.99 595.43 435.98 595.35 435.94 595.26 435.89 595.18 435.81 595.10 435.72 595.04 435.59 594.99 435.42 594.96 435.22 594.95 434.99 594.97 434.63 595.01 434.27 595.07 433.91 595.15 433.56 595.25 433.20 596.83 426.87 596.87 426.73 596.90 426.61 596.92 426.52 596.93 426.44 596.93 426.39 596.89 426.17 596.81 425.99 596.67 425.85 596.47 425.76 596.23 425.71 596.15 425.71 596.05 425.73 595.95 425.76 595.84 425.80 595.73 425.87 595.61 425.96 595.51 426.08 595.41 426.24 595.33 426.43 595.26 426.66 595.12 426.42 594.97 426.19 594.81 425.98 594.63 425.79 594.44 425.62 594.23 425.47 594.00 425.36 593.74 425.27 593.46 425.22 593.16 425.20 592.30 425.33 591.48 425.63 590.70 426.10 589.95 426.74 589.24 427.55 588.61 428.47 588.11 429.44 587.74 430.47 587.50 431.55 587.39 432.68 Z M 589.12 433.78 L 589.14 433.39 589.20 432.89 589.31 432.30 589.45 431.61 589.62 430.83 589.84 430.02 590.09 429.27 590.37 428.56 590.68 427.90 591.03 427.29 591.19 427.07 591.36 426.85 591.55 426.64 591.75 426.44 591.96 426.25 592.19 426.08 592.42 425.95 592.66 425.85 592.90 425.79 593.16 425.76 593.53 425.83 593.86 425.97 594.14 426.16 594.36 426.42 594.53 426.74 594.67 427.08 594.77 427.37 594.83 427.64 594.87 427.86 594.88 428.05 594.83 428.36 594.73 428.80 594.60 429.37 594.42 430.08 594.21 430.93 593.99 431.76 593.81 432.45 593.67 432.98 593.56 433.36 593.50 433.58 593.37 433.82 593.19 434.08 592.97 434.37 592.70 434.69 592.38 435.02 592.04 435.35 591.68 435.60 591.30 435.80 590.92 435.93 590.52 436.00 590.21 435.95 589.94 435.85 589.72 435.69 589.54 435.49 589.40 435.23 589.29 434.94 589.21 434.66 589.16 434.37 589.13 434.08 589.12 433.78 Z" />
<path fill="rgb(0,0,0)" stroke="rgb(0,0,0)" stroke-width="0" d=" M 201.91 431.05 L 201.93 431.17 201.96 431.27 202.02 431.36 202.09 431.42 202.19 431.46 202.30 431.49 202.41 431.52 202.53 431.53 202.66 431.54 202.79 431.54 218.73 431.54 218.93 431.54 219.12 431.53 219.28 431.52 219.42 431.51 219.54 431.48 219.64 431.44 219.74 431.36 219.83 431.25 219.92 431.10 220.01 430.91 220.84 428.99 221.53 427.39 222.08 426.12 222.49 425.17 222.76 424.54 222.94 424.13 223.07 423.81 223.15 423.58 223.19 423.44 223.17 423.40 223.14 423.25 223.08 423.14 222.99 423.06 222.87 423.02 222.72 423.01 222.59 423.02 222.48 423.05 222.38 423.09 222.30 423.15 222.24 423.22 222.19 423.30 222.14 423.39 222.09 423.49 222.04 423.59 221.99 423.70 221.31 425.23 220.62 426.55 219.92 427.64 219.21 428.52 218.48 429.18 217.67 429.68 216.68 430.05 215.53 430.31 214.21 430.44 212.73 430.46 208.93 430.46 208.81 430.46 208.70 430.46 208.59 430.44 208.49 430.43 208.38 430.40 208.29 430.36 208.22 430.31 208.17 430.25 208.13 430.16 208.12 430.07 208.12 429.93 208.18 429.66 208.27 429.24 208.41 428.68 208.59 427.97 208.83 427.05 209.15 425.82 209.55 424.29 210.02 422.47 210.57 420.34 213.25 420.34 213.76 420.33 214.22 420.36 214.64 420.40 215.02 420.46 215.35 420.55 215.62 420.68 215.84 420.86 215.99 421.11 216.09 421.40 216.13 421.76 216.11 421.99 216.09 422.23 216.06 422.45 216.02 422.67 215.97 422.88 215.92 423.08 215.88 423.27 215.85 423.44 215.83 423.59 215.82 423.73 215.87 423.92 215.97 424.06 216.09 424.14 216.26 424.16 216.46 424.13 216.55 424.14 216.65 424.05 216.75 423.85 216.86 423.56 216.98 423.15 217.14 422.52 217.39 421.54 217.73 420.22 218.16 418.54 218.67 416.51 218.70 416.42 218.73 416.32 218.75 416.20 218.76 416.06 218.78 415.91 218.77 415.75 218.72 415.63 218.63 415.54 218.49 415.48 218.30 415.45 218.17 415.46 218.06 415.50 217.97 415.55 217.89 415.63 217.83 415.72 217.78 415.82 217.74 415.93 217.70 416.03 217.68 416.14 217.66 416.24 217.43 416.97 217.17 417.58 216.88 418.09 216.56 418.48 216.21 418.76 215.80 418.96 215.32 419.11 214.78 419.21 214.17 419.26 213.48 419.26 210.84 419.26 212.88 411.30 212.98 410.95 213.08 410.65 213.20 410.42 213.33 410.24 213.48 410.12 213.65 410.04 213.87 409.98 214.13 409.95 214.43 409.93 214.78 409.94 218.17 409.94 219.14 409.93 220.01 409.98 220.79 410.07 221.48 410.23 222.08 410.44 222.57 410.74 222.96 411.18 223.24 411.76 223.41 412.47 223.47 413.32 223.46 413.69 223.44 414.02 223.42 414.34 223.39 414.62 223.36 414.88 223.32 415.12 223.30 415.33 223.27 415.53 223.26 415.70 223.25 415.84 223.30 416.06 223.38 416.22 223.48 416.33 223.62 416.38 223.79 416.38 223.93 416.37 224.05 416.32 224.16 416.20 224.25 416.04 224.32 415.81 224.36 415.57 224.42 415.14 224.51 414.53 224.62 413.73 224.76 412.74 224.90 411.75 225.01 410.92 225.09 410.26 225.16 409.76 225.19 409.44 225.16 409.22 225.07 409.05 224.94 408.94 224.75 408.87 224.51 408.86 208.07 408.86 207.95 408.86 207.84 408.88 207.74 408.93 207.65 408.99 207.56 409.08 207.48 409.24 207.44 409.39 207.44 409.54 207.48 409.69 207.56 409.83 207.69 409.89 207.84 409.94 208.02 409.97 208.22 409.98 208.44 409.97 208.88 409.97 209.09 409.97 209.29 409.98 209.47 409.99 209.65 410.02 209.82 410.06 209.96 410.11 210.08 410.19 210.16 410.29 210.22 410.42 210.24 410.57 210.23 410.71 210.21 410.88 210.17 411.07 210.13 411.29 210.07 411.53 205.64 428.71 205.61 428.87 205.56 429.03 205.52 429.18 205.47 429.34 205.41 429.50 205.35 429.66 205.27 429.80 205.17 429.93 205.06 430.06 204.93 430.17 204.66 430.28 204.38 430.37 204.08 430.42 203.77 430.44 203.44 430.43 203.13 430.43 202.93 430.43 202.74 430.44 202.57 430.45 202.41 430.48 202.27 430.52 202.14 430.58 202.05 430.66 201.98 430.76 201.93 430.89 201.91 431.05 Z" />
<path fill="rgb(0,0,0)" stroke="rgb(0,0,0)" stroke-width="0" d=" M 227.38 432.40 L 227.42 433.12 227.55 433.78 227.76 434.38 228.04 434.92 228.41 435.40 228.84 435.81 229.34 436.13 229.89 436.36 230.50 436.50 231.18 436.56 232.13 436.47 233.00 436.30 233.79 436.05 234.49 435.72 235.10 435.31 235.62 434.89 236.02 434.51 236.31 434.19 236.49 433.91 236.56 433.68 236.55 433.60 236.53 433.54 236.49 433.47 236.45 433.41 236.39 433.36 236.32 433.32 236.25 433.29 236.18 433.29 236.11 433.31 236.04 433.35 235.97 433.46 235.80 433.66 235.54 433.93 235.18 434.27 234.73 434.69 234.19 435.11 233.57 435.45 232.87 435.71 232.09 435.89 231.23 436.00 230.81 435.95 230.43 435.85 230.11 435.68 229.84 435.46 229.62 435.18 229.44 434.86 229.30 434.52 229.21 434.16 229.15 433.77 229.14 433.37 229.15 433.02 229.18 432.67 229.23 432.33 229.28 431.99 229.35 431.65 229.42 431.34 229.48 431.08 229.54 430.86 229.58 430.69 229.62 430.57 230.03 429.40 230.46 428.42 230.93 427.62 231.42 426.99 231.94 426.54 232.46 426.23 232.92 425.99 233.34 425.83 233.71 425.76 234.03 425.76 234.19 425.76 234.36 425.78 234.54 425.81 234.73 425.85 234.93 425.92 235.14 426.01 235.32 426.13 235.50 426.28 235.66 426.47 235.81 426.70 235.53 426.76 235.29 426.84 235.09 426.96 234.94 427.09 234.82 427.25 234.74 427.42 234.68 427.57 234.63 427.71 234.61 427.84 234.61 427.94 234.66 428.22 234.77 428.44 234.93 428.61 235.14 428.71 235.40 428.76 235.55 428.75 235.71 428.71 235.87 428.65 236.03 428.55 236.19 428.43 236.33 428.28 236.45 428.08 236.53 427.84 236.59 427.56 236.62 427.23 236.58 426.88 236.49 426.56 236.34 426.26 236.13 426.00 235.87 425.76 235.56 425.56 235.22 425.41 234.85 425.29 234.44 425.22 234.00 425.20 233.00 425.31 232.05 425.59 231.14 426.03 230.28 426.63 229.47 427.38 228.75 428.25 228.18 429.19 227.76 430.20 227.50 431.27 227.38 432.40 Z" />
<path fill="rgb(0,0,0)" stroke="rgb(0,0,0)" stroke-width="0" d=" M 116.83 316.08 L 116.91 317.18 117.12 318.18 117.45 319.08 117.90 319.90 118.49 320.62 119.17 321.22 119.94 321.70 120.79 322.04 121.72 322.26 122.74 322.34 123.46 322.29 124.15 322.18 124.82 322.01 125.46 321.77 126.09 321.48 126.68 321.14 127.24 320.78 127.77 320.40 128.26 319.99 128.71 319.57 129.40 318.83 130.00 318.10 130.51 317.38 130.92 316.66 131.24 315.95 131.51 315.25 131.74 314.57 131.95 313.90 132.13 313.26 132.29 312.63 134.78 302.90 134.84 302.63 134.91 302.36 134.99 302.08 135.09 301.81 135.20 301.53 135.34 301.26 135.52 301.00 135.75 300.76 136.01 300.54 136.32 300.34 136.72 300.18 137.08 300.05 137.43 299.96 137.75 299.91 138.05 299.90 138.31 299.88 138.51 299.81 138.66 299.69 138.76 299.53 138.80 299.31 138.77 299.14 138.69 299.01 138.58 298.92 138.42 298.87 138.23 298.86 138.11 298.87 137.96 298.87 137.78 298.88 137.56 298.89 137.31 298.90 137.01 298.91 136.66 298.92 136.25 298.92 135.78 298.93 135.25 298.93 134.24 298.75 133.42 298.61 132.79 298.52 132.35 298.47 132.10 298.46 131.97 298.46 131.85 298.48 131.74 298.52 131.64 298.59 131.55 298.67 131.51 298.73 131.48 298.80 131.46 298.88 131.44 298.96 131.44 299.05 131.45 299.14 131.47 299.23 131.50 299.30 131.55 299.37 131.61 299.43 131.80 299.48 132.04 299.53 132.31 299.58 132.63 299.63 132.99 299.68 133.33 299.77 133.61 299.95 133.82 300.21 133.97 300.56 134.05 300.99 134.03 301.19 134.00 301.39 133.97 301.59 133.93 301.78 133.87 301.97 131.15 312.68 131.03 313.18 130.90 313.67 130.76 314.15 130.60 314.63 130.43 315.11 129.96 316.16 129.40 317.12 128.77 318.00 128.06 318.80 127.27 319.52 126.43 320.13 125.58 320.61 124.70 320.96 123.80 321.18 122.88 321.26 122.38 321.24 121.88 321.14 121.39 320.97 120.91 320.71 120.44 320.38 120.01 319.96 119.67 319.41 119.42 318.75 119.26 317.97 119.18 317.07 119.19 316.73 119.21 316.39 119.24 316.06 119.28 315.73 119.34 315.42 119.39 315.13 119.45 314.86 119.50 314.61 119.55 314.39 119.59 314.20 122.90 301.16 122.97 300.84 123.08 300.55 123.21 300.28 123.39 300.05 123.59 299.84 123.92 299.71 124.28 299.61 124.65 299.55 125.05 299.52 125.48 299.54 125.88 299.54 126.19 299.48 126.43 299.36 126.59 299.19 126.68 298.95 126.66 298.79 126.59 298.67 126.46 298.57 126.27 298.50 126.02 298.46 125.90 298.47 125.73 298.47 125.52 298.48 125.26 298.50 124.95 298.51 124.58 298.53 124.10 298.54 123.53 298.56 122.85 298.56 122.08 298.57 121.41 298.56 120.81 298.56 120.28 298.54 119.81 298.53 119.41 298.51 119.08 298.50 118.79 298.48 118.56 298.47 118.38 298.47 118.26 298.46 118.11 298.48 117.99 298.50 117.88 298.54 117.80 298.60 117.73 298.67 117.68 298.74 117.64 298.82 117.62 298.90 117.60 298.97 117.60 299.05 117.61 299.17 117.64 299.27 117.69 299.36 117.75 299.42 117.83 299.46 117.91 299.49 118.00 299.52 118.10 299.53 118.19 299.54 118.29 299.54 118.42 299.54 118.81 299.55 119.16 299.56 119.46 299.59 119.70 299.63 119.89 299.67 120.04 299.73 120.16 299.82 120.24 299.93 120.29 300.06 120.30 300.21 120.29 300.30 120.28 300.39 120.27 300.49 120.25 300.60 120.23 300.72 117.21 313.19 117.09 313.68 116.99 314.20 116.92 314.76 116.86 315.36 116.83 315.99 Z" />
<path fill="rgb(0,0,0)" stroke="rgb(0,0,0)" stroke-width="0" d=" M 157.38 332.40 L 157.42 333.12 157.55 333.78 157.76 334.38 158.04 334.92 158.41 335.40 158.84 335.81 159.34 336.13 159.89 336.36 160.50 336.50 161.18 336.56 162.13 336.47 163.00 336.30 163.79 336.05 164.49 335.72 165.10 335.31 165.62 334.89 166.02 334.51 166.31 334.19 166.49 333.91 166.56 333.68 166.55 333.60 166.53 333.54 166.49 333.47 166.45 333.41 166.39 333.36 166.32 333.32 166.25 333.29 166.18 333.29 166.11 333.31 166.04 333.35 165.97 333.46 165.80 333.66 165.54 333.93 165.18 334.27 164.73 334.69 164.19 335.11 163.57 335.45 162.87 335.71 162.09 335.89 161.23 336.00 160.81 335.95 160.43 335.85 160.11 335.68 159.84 335.46 159.62 335.18 159.44 334.86 159.30 334.52 159.21 334.16 159.15 333.77 159.14 333.37 159.15 333.02 159.18 332.67 159.23 332.33 159.28 331.99 159.35 331.65 159.42 331.34 159.48 331.08 159.54 330.86 159.58 330.69 159.62 330.57 160.03 329.40 160.46 328.42 160.93 327.62 161.42 326.99 161.94 326.54 162.46 326.23 162.92 325.99 163.34 325.83 163.71 325.76 164.03 325.76 164.19 325.76 164.36 325.78 164.54 325.81 164.73 325.85 164.93 325.92 165.14 326.01 165.32 326.13 165.50 326.28 165.66 326.47 165.81 326.70 165.53 326.76 165.29 326.84 165.09 326.96 164.94 327.09 164.82 327.25 164.74 327.42 164.68 327.57 164.63 327.71 164.61 327.84 164.61 327.94 164.66 328.22 164.77 328.44 164.93 328.61 165.14 328.71 165.40 328.76 165.55 328.75 165.71 328.71 165.87 328.65 166.03 328.55 166.19 328.43 166.33 328.28 166.45 328.08 166.53 327.84 166.59 327.56 166.62 327.23 166.58 326.88 166.49 326.56 166.34 326.26 166.13 326.00 165.87 325.76 165.56 325.56 165.22 325.41 164.85 325.29 164.44 325.22 164.00 325.20 163.00 325.31 162.05 325.59 161.14 326.03 160.28 326.63 159.47 327.38 158.75 328.25 158.18 329.19 157.76 330.20 157.50 331.27 157.38 332.40 Z" />
<path fill="rgb(0,0,0)" stroke="rgb(0,0,0)" stroke-width="0" d=" M 137.76 325.90 L 137.81 326.12 137.90 326.30 138.04 326.44 138.24 326.54 138.48 326.58 138.58 326.58 138.68 326.56 138.79 326.53 138.90 326.48 139.02 326.41 139.14 326.32 139.24 326.20 139.34 326.04 139.42 325.86 139.49 325.64 139.94 323.89 140.30 322.45 140.59 321.30 140.80 320.47 140.93 319.94 141.02 319.60 141.09 319.33 141.15 319.15 141.18 319.04 141.20 319.00 141.30 318.77 141.46 318.48 141.69 318.12 141.98 317.70 142.35 317.21 142.77 316.74 143.25 316.36 143.79 316.07 144.37 315.87 145.01 315.76 145.28 315.79 145.50 315.85 145.69 315.96 145.85 316.10 145.97 316.27 146.06 316.47 146.12 316.68 146.17 316.90 146.20 317.13 146.20 317.37 146.12 318.06 145.99 318.86 145.80 319.77 145.54 320.80 145.24 321.94 144.93 323.06 144.68 324.01 144.49 324.79 144.35 325.42 144.27 325.87 144.32 326.10 144.41 326.29 144.55 326.43 144.74 326.52 144.98 326.56 145.22 326.52 145.42 326.44 145.59 326.33 145.72 326.18 145.82 326.00 145.89 325.82 145.95 325.66 145.99 325.52 146.02 325.41 146.04 325.32 146.45 323.70 146.80 322.36 147.07 321.30 147.27 320.53 147.40 320.04 147.49 319.72 147.55 319.48 147.60 319.30 147.64 319.19 147.65 319.15 147.78 318.86 147.96 318.52 148.21 318.12 148.52 317.68 148.89 317.19 149.32 316.72 149.80 316.35 150.33 316.06 150.91 315.86 151.54 315.76 151.70 315.76 151.86 315.79 152.01 315.84 152.16 315.92 152.31 316.02 152.44 316.17 152.54 316.37 152.62 316.63 152.67 316.94 152.69 317.32 152.62 318.08 152.49 318.87 152.31 319.68 152.08 320.51 151.79 321.37 151.50 322.19 151.27 322.92 151.09 323.56 150.97 324.09 150.89 324.54 150.92 324.88 150.99 325.20 151.09 325.49 151.23 325.76 151.42 325.99 151.63 326.19 151.87 326.35 152.13 326.46 152.42 326.53 152.73 326.56 153.38 326.42 153.95 326.17 154.44 325.81 154.86 325.34 155.19 324.76 155.46 324.17 155.66 323.68 155.81 323.27 155.89 322.97 155.91 322.75 155.89 322.63 155.85 322.54 155.79 322.47 155.71 322.44 155.62 322.42 155.57 322.43 155.53 322.44 155.49 322.45 155.45 322.47 155.40 322.50 155.30 322.69 155.16 322.97 155.00 323.34 154.81 323.79 154.60 324.33 154.35 324.87 154.04 325.30 153.68 325.64 153.26 325.87 152.80 326.00 152.69 325.98 152.60 325.96 152.53 325.91 152.46 325.85 152.41 325.78 152.38 325.70 152.35 325.61 152.33 325.51 152.32 325.42 152.32 325.32 152.39 324.82 152.52 324.23 152.70 323.55 152.94 322.77 153.23 321.90 153.52 321.00 153.75 320.14 153.94 319.32 154.06 318.54 154.14 317.80 154.11 317.31 154.02 316.88 153.89 316.49 153.70 316.15 153.46 315.86 153.17 315.63 152.85 315.44 152.49 315.31 152.10 315.22 151.67 315.20 151.11 315.24 150.60 315.34 150.12 315.48 149.68 315.68 149.27 315.93 148.91 316.21 148.57 316.50 148.28 316.80 148.01 317.10 147.78 317.42 147.78 317.27 147.73 317.08 147.64 316.84 147.52 316.55 147.35 316.21 147.12 315.88 146.78 315.62 146.33 315.41 145.77 315.27 145.12 315.20 144.72 315.21 144.35 315.26 143.99 315.35 143.64 315.46 143.31 315.61 142.98 315.79 142.67 316.00 142.35 316.24 142.04 316.51 141.74 316.82 141.82 316.54 141.88 316.29 141.92 316.09 141.95 315.92 141.97 315.78 141.92 315.68 141.82 315.60 141.68 315.54 141.49 315.51 141.26 315.50 141.14 315.50 141.03 315.51 140.92 315.52 140.81 315.53 140.71 315.55 140.61 315.57 140.53 315.59 140.46 315.61 140.41 315.63 140.37 315.65 139.87 315.67 139.44 315.70 139.08 315.73 138.79 315.77 138.56 315.80 138.39 315.85 138.26 315.92 138.16 316.01 138.11 316.12 138.11 316.24 138.18 316.40 138.31 316.51 138.49 316.59 138.73 316.61 139.02 316.60 139.31 316.59 139.55 316.63 139.73 316.73 139.86 316.87 139.93 317.07 139.93 317.14 139.91 317.22 139.90 317.30 139.88 317.39 139.86 317.49 137.89 325.17 137.85 325.34 137.82 325.49 137.80 325.63 137.78 325.77 137.76 325.90 Z" />
<path fill="rgb(0,0,0)" stroke="rgb(0,0,0)" stroke-width="0" d=" M 916.83 246.08 L 916.91 247.18 917.12 248.18 917.45 249.08 917.90 249.90 918.49 250.62 919.17 251.22 919.94 251.70 920.79 252.04 921.72 252.26 922.74 252.34 923.46 252.29 924.15 252.18 924.82 252.01 925.46 251.77 926.09 251.48 926.68 251.14 927.24 250.78 927.77 250.40 928.26 249.99 928.71 249.57 929.40 248.83 930.00 248.10 930.51 247.38 930.92 246.66 931.24 245.95 931.51 245.25 931.74 244.57 931.95 243.90 932.13 243.26 932.29 242.63 934.78 232.90 934.84 232.63 934.91 232.36 934.99 232.08 935.09 231.81 935.20 231.53 935.34 231.26 935.52 231.00 935.75 230.76 936.01 230.54 936.32 230.34 936.72 230.18 937.08 230.05 937.43 229.96 937.75 229.91 938.05 229.90 938.31 229.88 938.51 229.81 938.66 229.69 938.76 229.53 938.80 229.31 938.77 229.14 938.69 229.01 938.58 228.92 938.42 228.87 938.23 228.86 938.11 228.87 937.96 228.87 937.78 228.88 937.56 228.89 937.31 228.90 937.01 228.91 936.66 228.92 936.25 228.92 935.78 228.93 935.25 228.93 934.24 228.75 933.42 228.61 932.79 228.52 932.35 228.47 932.10 228.46 931.97 228.46 931.85 228.48 931.74 228.52 931.64 228.59 931.55 228.67 931.51 228.73 931.48 228.80 931.46 228.88 931.44 228.96 931.44 229.05 931.45 229.14 931.47 229.23 931.50 229.30 931.55 229.37 931.61 229.43 931.80 229.48 932.04 229.53 932.31 229.58 932.63 229.63 932.99 229.68 933.33 229.77 933.61 229.95 933.82 230.21 933.97 230.56 934.05 230.99 934.03 231.19 934.00 231.39 933.97 231.59 933.93 231.78 933.87 231.97 931.15 242.68 931.03 243.18 930.90 243.67 930.76 244.15 930.60 244.63 930.43 245.11 929.96 246.16 929.40 247.12 928.77 248.00 928.06 248.80 927.27 249.52 926.43 250.13 925.58 250.61 924.70 250.96 923.80 251.18 922.88 251.26 922.38 251.24 921.88 251.14 921.39 250.97 920.91 250.71 920.44 250.38 920.01 249.96 919.67 249.41 919.42 248.75 919.26 247.97 919.18 247.07 919.19 246.73 919.21 246.39 919.24 246.06 919.28 245.73 919.34 245.42 919.39 245.13 919.45 244.86 919.50 244.61 919.55 244.39 919.59 244.20 922.90 231.16 922.97 230.84 923.08 230.55 923.21 230.28 923.39 230.05 923.59 229.84 923.92 229.71 924.28 229.61 924.65 229.55 925.05 229.52 925.48 229.54 925.88 229.54 926.19 229.48 926.43 229.36 926.59 229.19 926.68 228.95 926.66 228.79 926.59 228.67 926.46 228.57 926.27 228.50 926.02 228.46 925.90 228.47 925.73 228.47 925.52 228.48 925.26 228.50 924.95 228.51 924.58 228.53 924.10 228.54 923.53 228.56 922.85 228.56 922.08 228.57 921.41 228.56 920.81 228.56 920.28 228.54 919.81 228.53 919.41 228.51 919.08 228.50 918.79 228.48 918.56 228.47 918.38 228.47 918.26 228.46 918.11 228.48 917.99 228.50 917.88 228.54 917.80 228.60 917.73 228.67 917.68 228.74 917.64 228.82 917.62 228.90 917.60 228.97 917.60 229.05 917.61 229.17 917.64 229.27 917.69 229.36 917.75 229.42 917.83 229.46 917.91 229.49 918.00 229.52 918.10 229.53 918.19 229.54 918.29 229.54 918.42 229.54 918.81 229.55 919.16 229.56 919.46 229.59 919.70 229.63 919.89 229.67 920.04 229.73 920.16 229.82 920.24 229.93 920.29 230.06 920.30 230.21 920.29 230.30 920.28 230.39 920.27 230.49 920.25 230.60 920.23 230.72 917.21 243.19 917.09 243.68 916.99 244.20 916.92 244.76 916.86 245.36 916.83 245.99 Z" />
<path fill="rgb(0,0,0)" stroke="rgb(0,0,0)" stroke-width="0" d=" M 956.11 265.95 L 956.14 266.06 956.20 266.14 956.29 266.20 956.41 266.23 956.57 266.23 956.79 266.22 957.18 266.21 957.74 266.20 958.47 266.20 959.36 266.19 959.89 266.18 960.37 266.18 960.78 266.18 961.13 266.19 961.42 266.20 961.66 266.21 961.88 266.22 962.05 266.22 962.20 266.23 962.31 266.23 962.43 266.22 962.54 266.20 962.62 266.17 962.70 266.13 962.75 266.08 962.80 266.02 962.83 265.96 962.86 265.91 962.87 265.85 962.87 265.79 962.87 265.76 962.86 265.74 962.86 265.72 962.85 265.70 962.85 265.68 962.76 265.58 962.64 265.50 962.48 265.44 962.28 265.42 962.03 265.42 961.75 265.42 961.60 265.42 961.45 265.42 961.32 265.40 961.19 265.38 961.07 265.34 960.96 265.30 960.88 265.23 960.82 265.14 960.78 265.04 960.76 264.92 960.83 264.57 960.95 264.04 961.13 263.31 961.35 262.39 961.63 261.28 961.91 260.18 962.13 259.29 962.31 258.61 962.43 258.13 962.50 257.86 965.22 257.86 965.75 257.90 966.21 258.00 966.59 258.15 966.90 258.35 967.14 258.60 967.32 258.88 967.45 259.17 967.55 259.46 967.60 259.76 967.61 260.06 967.62 260.40 967.59 260.78 967.54 261.18 967.47 261.61 967.36 262.07 967.24 262.53 967.15 262.97 967.08 263.39 967.03 263.79 967.00 264.17 967.06 264.77 967.20 265.28 967.41 265.71 967.70 266.06 968.06 266.33 968.45 266.53 968.84 266.69 969.24 266.79 969.64 266.85 970.04 266.86 970.63 266.76 971.15 266.58 971.60 266.32 971.97 265.97 972.27 265.55 972.51 265.11 972.69 264.74 972.82 264.43 972.89 264.18 972.91 263.99 972.88 263.86 972.83 263.76 972.77 263.70 972.69 263.66 972.59 263.65 972.49 263.67 972.41 263.70 972.34 263.74 972.28 263.80 972.24 263.88 972.20 263.96 972.17 264.05 972.14 264.13 972.12 264.21 972.10 264.30 971.90 264.76 971.70 265.16 971.49 265.49 971.28 265.75 971.06 265.94 970.84 266.08 970.64 266.19 970.47 266.26 970.31 266.29 970.17 266.30 969.97 266.27 969.79 266.21 969.65 266.12 969.54 265.99 969.46 265.83 969.40 265.65 969.36 265.45 969.33 265.23 969.31 265.00 969.31 264.76 969.32 264.41 969.33 264.01 969.36 263.58 969.40 263.11 969.45 262.59 969.50 262.09 969.54 261.64 969.58 261.26 969.60 260.94 969.61 260.68 969.60 260.32 969.54 259.96 969.44 259.61 969.29 259.28 969.11 258.95 968.88 258.64 968.60 258.36 968.26 258.09 967.87 257.85 967.43 257.64 968.48 257.33 969.42 256.97 970.25 256.56 970.96 256.09 971.56 255.58 972.05 255.03 972.43 254.47 972.71 253.89 972.87 253.30 972.93 252.69 972.90 252.20 972.78 251.72 972.55 251.23 972.23 250.74 971.80 250.25 971.24 249.80 970.51 249.45 969.61 249.18 968.55 249.01 967.31 248.92 960.86 248.92 960.66 248.93 960.50 248.97 960.39 249.06 960.31 249.19 960.27 249.37 960.31 249.52 960.38 249.63 960.48 249.71 960.62 249.74 960.78 249.73 960.91 249.73 961.22 249.74 961.49 249.75 961.72 249.77 961.91 249.79 962.06 249.82 962.18 249.86 962.27 249.92 962.34 250.00 962.37 250.10 962.38 250.21 962.37 250.33 962.35 250.46 962.32 250.61 962.28 250.77 962.23 250.95 958.91 264.23 958.88 264.37 958.85 264.51 958.81 264.64 958.77 264.78 958.72 264.92 958.67 265.04 958.59 265.16 958.50 265.26 958.39 265.35 958.27 265.42 958.01 265.49 957.74 265.53 957.46 265.56 957.18 265.57 956.89 265.55 956.63 265.55 956.42 265.59 956.26 265.67 956.16 265.79 956.11 265.95 Z M 962.65 257.30 L 962.69 257.12 962.75 256.88 962.83 256.56 962.93 256.17 963.04 255.72 963.19 255.12 963.39 254.32 963.65 253.31 963.95 252.09 964.31 250.67 964.36 250.46 964.42 250.28 964.49 250.13 964.57 250.01 964.66 249.91 964.77 249.84 964.93 249.79 965.14 249.75 965.39 249.73 965.69 249.73 966.91 249.73 967.42 249.73 967.93 249.77 968.42 249.85 968.90 249.96 969.37 250.12 969.80 250.34 970.13 250.64 970.38 251.04 970.54 251.52 970.61 252.08 970.59 252.35 970.56 252.61 970.51 252.87 970.45 253.14 970.38 253.40 970.27 253.87 970.09 254.36 969.84 254.86 969.52 255.36 969.13 255.88 968.62 256.35 967.94 256.73 967.11 257.02 966.11 257.20 964.94 257.30 Z" />
<path fill="rgb(0,0,0)" stroke="rgb(0,0,0)" stroke-width="0" d=" M 937.76 255.90 L 937.81 256.12 937.90 256.30 938.04 256.44 938.24 256.54 938.48 256.58 938.58 256.58 938.68 256.56 938.79 256.53 938.90 256.48 939.02 256.41 939.14 256.32 939.24 256.20 939.34 256.04 939.42 255.86 939.49 255.64 939.94 253.89 940.30 252.45 940.59 251.30 940.80 250.47 940.93 249.94 941.02 249.60 941.09 249.33 941.15 249.15 941.18 249.04 941.20 249.00 941.30 248.77 941.46 248.48 941.69 248.12 941.98 247.70 942.35 247.21 942.77 246.74 943.25 246.36 943.79 246.07 944.37 245.87 945.01 245.76 945.28 245.79 945.50 245.85 945.69 245.96 945.85 246.10 945.97 246.27 946.06 246.47 946.12 246.68 946.17 246.90 946.20 247.13 946.20 247.37 946.12 248.06 945.99 248.86 945.80 249.77 945.54 250.80 945.24 251.94 944.93 253.06 944.68 254.01 944.49 254.79 944.35 255.42 944.27 255.87 944.32 256.10 944.41 256.29 944.55 256.43 944.74 256.52 944.98 256.56 945.22 256.52 945.42 256.44 945.59 256.33 945.72 256.18 945.82 256.00 945.89 255.82 945.95 255.66 945.99 255.52 946.02 255.41 946.04 255.32 946.45 253.70 946.80 252.36 947.07 251.30 947.27 250.53 947.40 250.04 947.49 249.72 947.55 249.48 947.60 249.30 947.64 249.19 947.65 249.15 947.78 248.86 947.96 248.52 948.21 248.12 948.52 247.68 948.89 247.19 949.32 246.72 949.80 246.35 950.33 246.06 950.91 245.86 951.54 245.76 951.70 245.76 951.86 245.79 952.01 245.84 952.16 245.92 952.31 246.02 952.44 246.17 952.54 246.37 952.62 246.63 952.67 246.94 952.69 247.32 952.62 248.08 952.49 248.87 952.31 249.68 952.08 250.51 951.79 251.37 951.50 252.19 951.27 252.92 951.09 253.56 950.97 254.09 950.89 254.54 950.92 254.88 950.98 255.20 951.09 255.49 951.23 255.76 951.42 255.99 951.63 256.19 951.87 256.35 952.13 256.46 952.42 256.53 952.73 256.56 953.38 256.42 953.95 256.17 954.44 255.81 954.86 255.34 955.19 254.76 955.46 254.17 955.66 253.68 955.81 253.27 955.89 252.97 955.91 252.75 955.89 252.63 955.85 252.54 955.79 252.47 955.71 252.44 955.62 252.42 955.57 252.43 955.53 252.44 955.49 252.45 955.45 252.47 955.40 252.50 955.30 252.69 955.16 252.97 955.00 253.34 954.81 253.79 954.60 254.33 954.35 254.87 954.04 255.30 953.68 255.64 953.26 255.87 952.80 256.00 952.69 255.98 952.60 255.96 952.53 255.91 952.46 255.85 952.41 255.78 952.38 255.70 952.35 255.61 952.33 255.51 952.32 255.42 952.32 255.32 952.39 254.82 952.52 254.23 952.70 253.55 952.94 252.77 953.23 251.90 953.52 251.00 953.75 250.14 953.94 249.32 954.06 248.54 954.14 247.80 954.11 247.31 954.02 246.88 953.89 246.49 953.70 246.15 953.46 245.86 953.17 245.63 952.85 245.44 952.49 245.31 952.10 245.22 951.67 245.20 951.11 245.24 950.60 245.34 950.12 245.48 949.68 245.68 949.27 245.93 948.91 246.21 948.57 246.50 948.28 246.80 948.01 247.10 947.78 247.42 947.78 247.27 947.73 247.08 947.64 246.84 947.52 246.55 947.35 246.21 947.12 245.88 946.78 245.62 946.33 245.41 945.77 245.27 945.12 245.20 944.72 245.21 944.35 245.26 943.99 245.35 943.64 245.46 943.31 245.61 942.98 245.79 942.67 246.00 942.35 246.24 942.04 246.51 941.74 246.82 941.82 246.54 941.88 246.29 941.92 246.09 941.95 245.92 941.97 245.78 941.92 245.68 941.82 245.60 941.68 245.54 941.49 245.51 941.26 245.50 941.14 245.50 941.03 245.51 940.92 245.52 940.81 245.53 940.71 245.55 940.61 245.57 940.53 245.59 940.46 245.61 940.41 245.63 940.37 245.65 939.87 245.67 939.44 245.70 939.08 245.73 938.79 245.77 938.56 245.80 938.39 245.85 938.26 245.92 938.16 246.01 938.11 246.12 938.11 246.24 938.18 246.40 938.31 246.51 938.49 246.59 938.73 246.61 939.02 246.60 939.31 246.59 939.55 246.63 939.73 246.73 939.86 246.87 939.93 247.07 939.93 247.14 939.91 247.22 939.90 247.30 939.88 247.39 939.86 247.49 937.89 255.17 937.85 255.34 937.82 255.49 937.80 255.63 937.78 255.77 937.76 255.90 Z" />
<path fill="rgb(0,0,0)" stroke="rgb(0,0,0)" stroke-width="0" d=" M 974.59 272.68 L 974.63 273.35 974.74 273.97 974.91 274.53 975.14 275.04 975.44 275.49 975.80 275.86 976.20 276.16 976.64 276.37 977.13 276.51 977.67 276.56 978.05 276.52 978.42 276.45 978.77 276.33 979.10 276.17 979.42 275.97 979.71 275.75 979.99 275.52 980.25 275.29 980.48 275.05 980.70 274.81 980.81 275.17 980.94 275.49 981.11 275.76 981.30 275.98 981.51 276.17 981.74 276.31 981.98 276.42 982.22 276.50 982.47 276.55 982.72 276.56 982.92 276.55 983.12 276.52 983.31 276.47 983.49 276.39 983.67 276.29 984.01 275.96 984.31 275.60 984.56 275.18 984.77 274.73 984.95 274.23 985.08 273.75 985.19 273.37 985.26 273.08 985.30 272.88 985.31 272.78 985.30 272.70 985.29 272.64 985.26 272.58 985.22 272.54 985.17 272.51 985.12 272.49 985.07 272.47 985.02 272.46 984.98 272.45 984.93 272.45 984.83 272.46 984.74 272.50 984.66 272.59 984.58 272.73 984.50 272.90 984.40 273.29 984.29 273.69 984.17 274.08 984.03 274.49 983.88 274.89 983.72 275.26 983.52 275.56 983.31 275.78 983.06 275.93 982.80 276.00 982.71 275.99 982.63 275.98 982.55 275.94 982.46 275.89 982.38 275.81 982.30 275.72 982.24 275.59 982.19 275.42 982.16 275.22 982.15 274.99 982.17 274.63 982.21 274.27 982.27 273.91 982.35 273.56 982.45 273.20 984.03 266.87 984.07 266.73 984.10 266.61 984.12 266.52 984.13 266.44 984.13 266.39 984.09 266.17 984.01 265.99 983.87 265.85 983.67 265.76 983.43 265.71 983.35 265.71 983.25 265.73 983.15 265.76 983.04 265.80 982.93 265.87 982.81 265.96 982.71 266.08 982.61 266.24 982.53 266.43 982.46 266.66 982.32 266.42 982.17 266.19 982.01 265.98 981.83 265.79 981.64 265.62 981.43 265.47 981.20 265.36 980.94 265.27 980.66 265.22 980.36 265.20 979.50 265.33 978.68 265.63 977.90 266.10 977.15 266.74 976.44 267.55 975.81 268.47 975.31 269.44 974.94 270.47 974.70 271.55 974.59 272.68 Z M 976.32 273.78 L 976.34 273.39 976.40 272.89 976.51 272.30 976.65 271.61 976.82 270.83 977.04 270.02 977.29 269.27 977.57 268.56 977.88 267.90 978.23 267.29 978.39 267.07 978.56 266.85 978.75 266.64 978.95 266.44 979.16 266.25 979.39 266.08 979.62 265.95 979.86 265.85 980.10 265.79 980.36 265.76 980.73 265.83 981.06 265.97 981.34 266.16 981.56 266.42 981.73 266.74 981.87 267.08 981.97 267.37 982.03 267.64 982.07 267.86 982.08 268.05 982.03 268.36 981.93 268.80 981.80 269.37 981.62 270.08 981.41 270.93 981.19 271.76 981.01 272.45 980.87 272.98 980.76 273.36 980.70 273.58 980.57 273.82 980.39 274.08 980.17 274.37 979.90 274.69 979.58 275.02 979.24 275.35 978.88 275.60 978.50 275.80 978.12 275.93 977.72 276.00 977.41 275.95 977.14 275.85 976.92 275.69 976.74 275.49 976.60 275.23 976.49 274.94 976.41 274.66 976.36 274.37 976.33 274.08 976.32 273.78 Z" />
<polyline points="155.55 465.93 175.55 465.93" fill="none" stroke="rgb(0,0,0)" stroke-width="2" />
<polyline points="265.16 465.97 285.16 465.97" fill="none" stroke="rgb(0,0,0)" stroke-width="2" />
<polyline points="275.16 455.97 275.16 475.97" fill="none" stroke="rgb(0,0,0)" stroke-width="2" />
<polyline points="520.44 462.23 540.44 462.23" fill="none" stroke="rgb(0,0,0)" stroke-width="2" />
<polyline points="623.76 461.70 643.76 461.70" fill="none" stroke="rgb(0,0,0)" stroke-width="2" />
<polyline points="633.76 451.70 633.76 471.70" fill="none" stroke="rgb(0,0,0)" stroke-width="2" />
</svg>
